<svg width="512" height="512" version="1.1" xmlns="http://www.w3.org/2000/svg" desc="Created with imagetracer.js version 1.2.6" ><path fill="rgb(0,0,0)" stroke="rgb(0,0,0)" stroke-width="1" opacity="0" d="M 0 0 L 512 0 L 512 512 L 0 512 L 0 0 Z M 250 37 L 249 38 L 241 38 L 231 40 L 219 44 Q 203 50 191 60 Q 175 72 165 91 L 158 108 L 155 122 L 155 132 L 154 133 L 155 144 L 121 144 Q 108 147 101 154 Q 92 162 89 177 L 86 230 L 85 231 L 85 244 L 84 245 L 84 258 L 83 259 L 83 272 L 82 273 L 82 286 L 81 287 L 81 300 L 80 301 L 80 314 L 79 315 L 79 328 L 78 329 L 78 342 L 77 343 L 77 356 L 76 357 L 76 370 L 75 371 L 75 384 L 74 385 L 74 398 L 73 399 L 73 412 L 72 413 L 72 426 L 71 427 L 71 444 Q 72 453 77 459 Q 86 472 105 475 L 408 475 L 419 472 L 426 468 Q 438 460 441 444 L 441 427 L 440 426 L 440 413 L 439 412 L 439 399 L 438 398 L 438 385 L 437 384 L 437 371 L 436 370 L 436 357 L 435 356 L 435 343 L 434 342 L 434 329 L 433 328 L 433 315 L 432 314 L 432 301 L 431 300 L 431 287 L 430 286 L 430 273 L 429 272 L 429 259 L 428 258 L 428 245 L 427 244 L 427 231 L 426 230 L 423 177 Q 421 163 413 156 Q 405 147 392 144 L 357 144 L 357 126 L 353 108 Q 347 88 335 75 Q 321 57 301 47 L 282 40 L 272 38 L 250 37 Z " /><path fill="rgb(0,0,0)" stroke="rgb(0,0,0)" stroke-width="1" opacity="0" d="M 254.5 69 L 267.5 70 L 281.5 74 Q 297.7 80.3 308 92.5 Q 317 102.5 322 116.5 L 325 129.5 L 325 144 L 187.5 144 L 187 143.5 L 187 129.5 Q 192.2 101.2 210.5 86 Q 219 78.5 230.5 74 L 239.5 71 L 253.5 70 L 254.5 69 Z " /><path fill="rgb(0,0,0)" stroke="rgb(0,0,0)" stroke-width="1" opacity="0" d="M 125.5 176 L 155 176 L 155 197.5 L 156 198.5 L 156 206.5 L 155 207.5 L 155 260.5 L 159 268 L 166.5 272 L 174.5 272 L 184 265.5 L 187 258.5 L 187 176 L 325 176 L 325 258.5 Q 326.5 265.4 331.5 269 Q 335.7 273.3 345.5 272 L 353 268 L 357 260.5 L 357 176 L 386.5 176 L 390 178.5 L 391 180.5 L 391 192.5 L 392 193.5 L 392 206.5 L 393 207.5 L 393 220.5 L 394 221.5 L 394 234.5 L 395 235.5 L 395 248.5 L 396 249.5 L 396 262.5 L 397 263.5 L 397 276.5 L 398 277.5 L 398 290.5 L 399 291.5 L 399 304.5 L 400 305.5 L 400 318.5 L 401 319.5 L 401 332.5 L 402 333.5 L 402 346.5 L 403 347.5 L 403 360.5 L 404 361.5 L 404 374.5 L 405 375.5 L 405 388.5 L 406 389.5 L 406 402.5 L 407 403.5 L 409 438.5 L 406.5 442 L 403.5 443 L 108.5 443 L 104 440.5 L 103 431.5 L 104 430.5 L 104 417.5 L 105 416.5 L 105 403.5 L 106 402.5 L 106 389.5 L 107 388.5 L 107 375.5 L 108 374.5 L 108 361.5 L 109 360.5 L 109 347.5 L 110 346.5 L 110 333.5 L 111 332.5 L 111 319.5 L 112 318.5 L 112 305.5 L 113 304.5 L 113 291.5 L 114 290.5 L 114 277.5 L 115 276.5 L 115 263.5 L 116 262.5 L 116 249.5 L 117 248.5 L 117 235.5 L 118 234.5 L 121 180.5 L 123.5 177 L 125.5 176 Z " /><path fill="rgb(0,0,0)" stroke="rgb(0,0,0)" stroke-width="1" opacity="0.7450980392156863" d="M 249.5 37 L 263 37.5 L 249.5 38 L 249.5 37 Z " /><path fill="rgb(0,0,0)" stroke="rgb(0,0,0)" stroke-width="1" opacity="0.7450980392156863" d="M 240.5 38 L 243 38.5 L 240.5 39 L 240.5 38 Z " /><path fill="rgb(0,0,0)" stroke="rgb(0,0,0)" stroke-width="1" opacity="0.7450980392156863" d="M 269.5 38 L 272 38.5 L 269.5 39 L 269.5 38 Z " /><path fill="rgb(0,0,0)" stroke="rgb(0,0,0)" stroke-width="1" opacity="0.7450980392156863" d="M 302.5 48 L 303.5 50 L 302.5 48 Z " /><path fill="rgb(0,0,0)" stroke="rgb(0,0,0)" stroke-width="1" opacity="0.7450980392156863" d="M 203.5 51 L 202.5 53 L 203.5 51 Z " /><path fill="rgb(0,0,0)" stroke="rgb(0,0,0)" stroke-width="1" opacity="0.7450980392156863" d="M 309.5 52 L 310.5 54 L 309.5 52 Z " /><path fill="rgb(0,0,0)" stroke="rgb(0,0,0)" stroke-width="1" opacity="0.7450980392156863" d="M 312.5 54 L 313.5 56 L 312.5 54 Z " /><path fill="rgb(0,0,0)" stroke="rgb(0,0,0)" stroke-width="1" opacity="0.7450980392156863" d="M 197.5 55 L 196.5 57 L 197.5 55 Z " /><path fill="rgb(0,0,0)" stroke="rgb(0,0,0)" stroke-width="1" opacity="0.7450980392156863" d="M 194.5 57 L 193.5 59 L 194.5 57 Z " /><path fill="rgb(0,0,0)" stroke="rgb(0,0,0)" stroke-width="1" opacity="0.7450980392156863" d="M 316.5 57 L 317.5 59 L 316.5 57 Z " /><path fill="rgb(0,0,0)" stroke="rgb(0,0,0)" stroke-width="1" opacity="0.7450980392156863" d="M 190.5 60 L 187.5 64 L 190.5 60 Z " /><path fill="rgb(0,0,0)" stroke="rgb(0,0,0)" stroke-width="1" opacity="0.7450980392156863" d="M 320.5 60 L 323.5 64 L 320.5 60 Z " /><path fill="rgb(0,0,0)" stroke="rgb(0,0,0)" stroke-width="1" opacity="0.7450980392156863" d="M 247.5 69 L 254 69.5 L 247.5 70 L 247.5 69 Z " /><path fill="rgb(0,0,0)" stroke="rgb(0,0,0)" stroke-width="1" opacity="0.7450980392156863" d="M 258.5 69 L 265 69.5 L 258.5 70 L 258.5 69 Z " /><path fill="rgb(0,0,0)" stroke="rgb(0,0,0)" stroke-width="1" opacity="0.7450980392156863" d="M 241.5 70 L 244 70.5 L 241.5 71 L 241.5 70 Z " /><path fill="rgb(0,0,0)" stroke="rgb(0,0,0)" stroke-width="1" opacity="0.7450980392156863" d="M 268.5 70 L 271 70.5 L 268.5 71 L 268.5 70 Z " /><path fill="rgb(0,0,0)" stroke="rgb(0,0,0)" stroke-width="1" opacity="0.7450980392156863" d="M 330.5 70 L 334.5 75 L 330.5 70 Z " /><path fill="rgb(0,0,0)" stroke="rgb(0,0,0)" stroke-width="1" opacity="0.7450980392156863" d="M 178.5 72 L 175.5 76 L 178.5 72 Z " /><path fill="rgb(0,0,0)" stroke="rgb(0,0,0)" stroke-width="1" opacity="0.7450980392156863" d="M 336.5 77 L 337.5 79 L 336.5 77 Z " /><path fill="rgb(0,0,0)" stroke="rgb(0,0,0)" stroke-width="1" opacity="0.7450980392156863" d="M 173.5 78 L 172.5 80 L 173.5 78 Z " /><path fill="rgb(0,0,0)" stroke="rgb(0,0,0)" stroke-width="1" opacity="0.7450980392156863" d="M 216.5 81 L 215.5 83 L 216.5 81 Z " /><path fill="rgb(0,0,0)" stroke="rgb(0,0,0)" stroke-width="1" opacity="0.7450980392156863" d="M 213.5 83 L 211.5 86 L 213.5 83 Z " /><path fill="rgb(0,0,0)" stroke="rgb(0,0,0)" stroke-width="1" opacity="0.7450980392156863" d="M 298.5 83 L 301.5 87 L 298.5 83 Z " /><path fill="rgb(0,0,0)" stroke="rgb(0,0,0)" stroke-width="1" opacity="0.7450980392156863" d="M 169.5 84 L 168.5 86 L 169.5 84 Z " /><path fill="rgb(0,0,0)" stroke="rgb(0,0,0)" stroke-width="1" opacity="0.7450980392156863" d="M 342.5 86 L 343.5 88 L 342.5 86 Z " /><path fill="rgb(0,0,0)" stroke="rgb(0,0,0)" stroke-width="1" opacity="0.7450980392156863" d="M 166.5 89 L 165.5 91 L 166.5 89 Z " /><path fill="rgb(0,0,0)" stroke="rgb(0,0,0)" stroke-width="1" opacity="0.7450980392156863" d="M 203.5 93 L 201.5 96 L 203.5 93 Z " /><path fill="rgb(0,0,0)" stroke="rgb(0,0,0)" stroke-width="1" opacity="0.7450980392156863" d="M 308.5 93 L 310.5 96 L 308.5 93 Z " /><path fill="rgb(0,0,0)" stroke="rgb(0,0,0)" stroke-width="1" opacity="0.7450980392156863" d="M 199.5 98 L 198.5 100 L 199.5 98 Z " /><path fill="rgb(0,0,0)" stroke="rgb(0,0,0)" stroke-width="1" opacity="0.7450980392156863" d="M 312.5 98 L 313.5 100 L 312.5 98 Z " /><path fill="rgb(0,0,0)" stroke="rgb(0,0,0)" stroke-width="1" opacity="0.7450980392156863" d="M 197.5 101 L 196.5 103 L 197.5 101 Z " /><path fill="rgb(0,0,0)" stroke="rgb(0,0,0)" stroke-width="1" opacity="0.7450980392156863" d="M 314.5 101 L 315.5 103 L 314.5 101 Z " /><path fill="rgb(0,0,0)" stroke="rgb(0,0,0)" stroke-width="1" opacity="0.7450980392156863" d="M 354.5 114 L 355 116.5 L 354 116.5 L 354.5 114 Z " /><path fill="rgb(0,0,0)" stroke="rgb(0,0,0)" stroke-width="1" opacity="0.7450980392156863" d="M 355.5 119 L 356 121.5 L 355 121.5 L 355.5 119 Z " /><path fill="rgb(0,0,0)" stroke="rgb(0,0,0)" stroke-width="1" opacity="0.7450980392156863" d="M 155.5 121 L 156 124.5 L 155 124.5 L 155.5 121 Z " /><path fill="rgb(0,0,0)" stroke="rgb(0,0,0)" stroke-width="1" opacity="0.7450980392156863" d="M 356.5 125 L 357 128.5 L 356 128.5 L 356.5 125 Z " /><path fill="rgb(0,0,0)" stroke="rgb(0,0,0)" stroke-width="1" opacity="0.7450980392156863" d="M 187.5 126 L 188 128.5 L 187 128.5 L 187.5 126 Z " /><path fill="rgb(0,0,0)" stroke="rgb(0,0,0)" stroke-width="1" opacity="0.7450980392156863" d="M 324.5 126 L 325 128.5 L 324 128.5 L 324.5 126 Z " /><path fill="rgb(0,0,0)" stroke="rgb(0,0,0)" stroke-width="1" opacity="0.7450980392156863" d="M 154.5 132 L 155 135.5 L 154 135.5 L 154.5 132 Z " /><path fill="rgb(0,0,0)" stroke="rgb(0,0,0)" stroke-width="1" opacity="0.7450980392156863" d="M 186.5 134 L 187 143.5 L 186 143.5 L 186.5 134 Z " /><path fill="rgb(0,0,0)" stroke="rgb(0,0,0)" stroke-width="1" opacity="0.7450980392156863" d="M 325.5 134 L 326 143.5 L 325 143.5 L 325.5 134 Z " /><path fill="rgb(0,0,0)" stroke="rgb(0,0,0)" stroke-width="1" opacity="0.7450980392156863" d="M 120.5 144 L 124 144.5 L 120.5 145 L 120.5 144 Z " /><path fill="rgb(0,0,0)" stroke="rgb(0,0,0)" stroke-width="1" opacity="0.7450980392156863" d="M 388.5 144 L 392 144.5 L 388.5 145 L 388.5 144 Z " /><path fill="rgb(0,0,0)" stroke="rgb(0,0,0)" stroke-width="1" opacity="0.7450980392156863" d="M 105.5 150 L 104.5 152 L 105.5 150 Z " /><path fill="rgb(0,0,0)" stroke="rgb(0,0,0)" stroke-width="1" opacity="0.7450980392156863" d="M 406.5 150 L 407.5 152 L 406.5 150 Z " /><path fill="rgb(0,0,0)" stroke="rgb(0,0,0)" stroke-width="1" opacity="0.7450980392156863" d="M 100.5 154 L 99.5 156 L 100.5 154 Z " /><path fill="rgb(0,0,0)" stroke="rgb(0,0,0)" stroke-width="1" opacity="0.7450980392156863" d="M 411.5 154 L 412.5 156 L 411.5 154 Z " /><path fill="rgb(0,0,0)" stroke="rgb(0,0,0)" stroke-width="1" opacity="0.7450980392156863" d="M 96.5 159 L 95.5 161 L 96.5 159 Z " /><path fill="rgb(0,0,0)" stroke="rgb(0,0,0)" stroke-width="1" opacity="0.7450980392156863" d="M 415.5 159 L 416.5 161 L 415.5 159 Z " /><path fill="rgb(0,0,0)" stroke="rgb(0,0,0)" stroke-width="1" opacity="0.7450980392156863" d="M 89.5 176 L 90 180.5 L 89 180.5 L 89.5 176 Z " /><path fill="rgb(0,0,0)" stroke="rgb(0,0,0)" stroke-width="1" opacity="0.7450980392156863" d="M 155.5 176 L 156 197.5 L 155 197.5 L 155.5 176 Z " /><path fill="rgb(0,0,0)" stroke="rgb(0,0,0)" stroke-width="1" opacity="0.7450980392156863" d="M 186.5 176 L 187 258.5 L 186 258.5 L 186.5 176 Z " /><path fill="rgb(0,0,0)" stroke="rgb(0,0,0)" stroke-width="1" opacity="0.7450980392156863" d="M 325.5 176 L 326 258.5 L 325 258.5 L 325.5 176 Z " /><path fill="rgb(0,0,0)" stroke="rgb(0,0,0)" stroke-width="1" opacity="0.7450980392156863" d="M 422.5 176 L 423 180.5 L 422 180.5 L 422.5 176 Z " /><path fill="rgb(0,0,0)" stroke="rgb(0,0,0)" stroke-width="1" opacity="0.7450980392156863" d="M 120.5 186 L 121 192.5 L 120 192.5 L 120.5 186 Z " /><path fill="rgb(0,0,0)" stroke="rgb(0,0,0)" stroke-width="1" opacity="0.7450980392156863" d="M 391.5 186 L 392 192.5 L 391 192.5 L 391.5 186 Z " /><path fill="rgb(0,0,0)" stroke="rgb(0,0,0)" stroke-width="1" opacity="0.7450980392156863" d="M 88.5 188 L 89 194.5 L 88 194.5 L 88.5 188 Z " /><path fill="rgb(0,0,0)" stroke="rgb(0,0,0)" stroke-width="1" opacity="0.7450980392156863" d="M 423.5 188 L 424 194.5 L 423 194.5 L 423.5 188 Z " /><path fill="rgb(0,0,0)" stroke="rgb(0,0,0)" stroke-width="1" opacity="0.7450980392156863" d="M 119.5 200 L 120 206.5 L 119 206.5 L 119.5 200 Z " /><path fill="rgb(0,0,0)" stroke="rgb(0,0,0)" stroke-width="1" opacity="0.7450980392156863" d="M 392.5 200 L 393 206.5 L 392 206.5 L 392.5 200 Z " /><path fill="rgb(0,0,0)" stroke="rgb(0,0,0)" stroke-width="1" opacity="0.7450980392156863" d="M 87.5 202 L 88 208.5 L 87 208.5 L 87.5 202 Z " /><path fill="rgb(0,0,0)" stroke="rgb(0,0,0)" stroke-width="1" opacity="0.7450980392156863" d="M 424.5 202 L 425 208.5 L 424 208.5 L 424.5 202 Z " /><path fill="rgb(0,0,0)" stroke="rgb(0,0,0)" stroke-width="1" opacity="0.7450980392156863" d="M 155.5 207 L 156 237.5 L 155 237.5 L 155.5 207 Z " /><path fill="rgb(0,0,0)" stroke="rgb(0,0,0)" stroke-width="1" opacity="0.7450980392156863" d="M 118.5 214 L 119 220.5 L 118 220.5 L 118.5 214 Z " /><path fill="rgb(0,0,0)" stroke="rgb(0,0,0)" stroke-width="1" opacity="0.7450980392156863" d="M 393.5 214 L 394 220.5 L 393 220.5 L 393.5 214 Z " /><path fill="rgb(0,0,0)" stroke="rgb(0,0,0)" stroke-width="1" opacity="0.7450980392156863" d="M 86.5 216 L 87 222.5 L 86 222.5 L 86.5 216 Z " /><path fill="rgb(0,0,0)" stroke="rgb(0,0,0)" stroke-width="1" opacity="0.7450980392156863" d="M 425.5 216 L 426 222.5 L 425 222.5 L 425.5 216 Z " /><path fill="rgb(0,0,0)" stroke="rgb(0,0,0)" stroke-width="1" opacity="0.7450980392156863" d="M 117.5 228 L 118 234.5 L 117 234.5 L 117.5 228 Z " /><path fill="rgb(0,0,0)" stroke="rgb(0,0,0)" stroke-width="1" opacity="0.7450980392156863" d="M 394.5 228 L 395 234.5 L 394 234.5 L 394.5 228 Z " /><path fill="rgb(0,0,0)" stroke="rgb(0,0,0)" stroke-width="1" opacity="0.7450980392156863" d="M 85.5 230 L 86 236.5 L 85 236.5 L 85.5 230 Z " /><path fill="rgb(0,0,0)" stroke="rgb(0,0,0)" stroke-width="1" opacity="0.7450980392156863" d="M 426.5 230 L 427 236.5 L 426 236.5 L 426.5 230 Z " /><path fill="rgb(0,0,0)" stroke="rgb(0,0,0)" stroke-width="1" opacity="0.7450980392156863" d="M 116.5 242 L 117 248.5 L 116 248.5 L 116.5 242 Z " /><path fill="rgb(0,0,0)" stroke="rgb(0,0,0)" stroke-width="1" opacity="0.7450980392156863" d="M 395.5 242 L 396 248.5 L 395 248.5 L 395.5 242 Z " /><path fill="rgb(0,0,0)" stroke="rgb(0,0,0)" stroke-width="1" opacity="0.7450980392156863" d="M 84.5 244 L 85 250.5 L 84 250.5 L 84.5 244 Z " /><path fill="rgb(0,0,0)" stroke="rgb(0,0,0)" stroke-width="1" opacity="0.7450980392156863" d="M 427.5 244 L 428 250.5 L 427 250.5 L 427.5 244 Z " /><path fill="rgb(0,0,0)" stroke="rgb(0,0,0)" stroke-width="1" opacity="0.7450980392156863" d="M 115.5 256 L 116 262.5 L 115 262.5 L 115.5 256 Z " /><path fill="rgb(0,0,0)" stroke="rgb(0,0,0)" stroke-width="1" opacity="0.7450980392156863" d="M 396.5 256 L 397 262.5 L 396 262.5 L 396.5 256 Z " /><path fill="rgb(0,0,0)" stroke="rgb(0,0,0)" stroke-width="1" opacity="0.7450980392156863" d="M 83.5 258 L 84 264.5 L 83 264.5 L 83.5 258 Z " /><path fill="rgb(0,0,0)" stroke="rgb(0,0,0)" stroke-width="1" opacity="0.7450980392156863" d="M 428.5 258 L 429 264.5 L 428 264.5 L 428.5 258 Z " /><path fill="rgb(0,0,0)" stroke="rgb(0,0,0)" stroke-width="1" opacity="0.7450980392156863" d="M 156.5 263 L 157.5 265 L 156.5 263 Z " /><path fill="rgb(0,0,0)" stroke="rgb(0,0,0)" stroke-width="1" opacity="0.7450980392156863" d="M 355.5 263 L 354.5 265 L 355.5 263 Z " /><path fill="rgb(0,0,0)" stroke="rgb(0,0,0)" stroke-width="1" opacity="0.7450980392156863" d="M 183.5 265 L 180.5 269 L 183.5 265 Z " /><path fill="rgb(0,0,0)" stroke="rgb(0,0,0)" stroke-width="1" opacity="0.7450980392156863" d="M 328.5 265 L 331.5 269 L 328.5 265 Z " /><path fill="rgb(0,0,0)" stroke="rgb(0,0,0)" stroke-width="1" opacity="0.7450980392156863" d="M 333.5 269 L 334.5 271 L 333.5 269 Z " /><path fill="rgb(0,0,0)" stroke="rgb(0,0,0)" stroke-width="1" opacity="0.7450980392156863" d="M 114.5 270 L 115 276.5 L 114 276.5 L 114.5 270 Z " /><path fill="rgb(0,0,0)" stroke="rgb(0,0,0)" stroke-width="1" opacity="0.7450980392156863" d="M 397.5 270 L 398 276.5 L 397 276.5 L 397.5 270 Z " /><path fill="rgb(0,0,0)" stroke="rgb(0,0,0)" stroke-width="1" opacity="0.7450980392156863" d="M 166.5 271 L 169 271.5 L 166.5 272 L 166.5 271 Z " /><path fill="rgb(0,0,0)" stroke="rgb(0,0,0)" stroke-width="1" opacity="0.7450980392156863" d="M 343.5 271 L 346 271.5 L 343.5 272 L 343.5 271 Z " /><path fill="rgb(0,0,0)" stroke="rgb(0,0,0)" stroke-width="1" opacity="0.7450980392156863" d="M 82.5 272 L 83 278.5 L 82 278.5 L 82.5 272 Z " /><path fill="rgb(0,0,0)" stroke="rgb(0,0,0)" stroke-width="1" opacity="0.7450980392156863" d="M 429.5 272 L 430 278.5 L 429 278.5 L 429.5 272 Z " /><path fill="rgb(0,0,0)" stroke="rgb(0,0,0)" stroke-width="1" opacity="0.7450980392156863" d="M 113.5 284 L 114 290.5 L 113 290.5 L 113.5 284 Z " /><path fill="rgb(0,0,0)" stroke="rgb(0,0,0)" stroke-width="1" opacity="0.7450980392156863" d="M 398.5 284 L 399 290.5 L 398 290.5 L 398.5 284 Z " /><path fill="rgb(0,0,0)" stroke="rgb(0,0,0)" stroke-width="1" opacity="0.7450980392156863" d="M 81.5 286 L 82 292.5 L 81 292.5 L 81.5 286 Z " /><path fill="rgb(0,0,0)" stroke="rgb(0,0,0)" stroke-width="1" opacity="0.7450980392156863" d="M 430.5 286 L 431 292.5 L 430 292.5 L 430.5 286 Z " /><path fill="rgb(0,0,0)" stroke="rgb(0,0,0)" stroke-width="1" opacity="0.7450980392156863" d="M 112.5 298 L 113 304.5 L 112 304.5 L 112.5 298 Z " /><path fill="rgb(0,0,0)" stroke="rgb(0,0,0)" stroke-width="1" opacity="0.7450980392156863" d="M 399.5 298 L 400 304.5 L 399 304.5 L 399.5 298 Z " /><path fill="rgb(0,0,0)" stroke="rgb(0,0,0)" stroke-width="1" opacity="0.7450980392156863" d="M 80.5 300 L 81 306.5 L 80 306.5 L 80.5 300 Z " /><path fill="rgb(0,0,0)" stroke="rgb(0,0,0)" stroke-width="1" opacity="0.7450980392156863" d="M 431.5 300 L 432 306.5 L 431 306.5 L 431.5 300 Z " /><path fill="rgb(0,0,0)" stroke="rgb(0,0,0)" stroke-width="1" opacity="0.7450980392156863" d="M 111.5 312 L 112 318.5 L 111 318.5 L 111.5 312 Z " /><path fill="rgb(0,0,0)" stroke="rgb(0,0,0)" stroke-width="1" opacity="0.7450980392156863" d="M 400.5 312 L 401 318.5 L 400 318.5 L 400.5 312 Z " /><path fill="rgb(0,0,0)" stroke="rgb(0,0,0)" stroke-width="1" opacity="0.7450980392156863" d="M 79.5 314 L 80 320.5 L 79 320.5 L 79.5 314 Z " /><path fill="rgb(0,0,0)" stroke="rgb(0,0,0)" stroke-width="1" opacity="0.7450980392156863" d="M 432.5 314 L 433 320.5 L 432 320.5 L 432.5 314 Z " /><path fill="rgb(0,0,0)" stroke="rgb(0,0,0)" stroke-width="1" opacity="0.7450980392156863" d="M 110.5 326 L 111 332.5 L 110 332.5 L 110.5 326 Z " /><path fill="rgb(0,0,0)" stroke="rgb(0,0,0)" stroke-width="1" opacity="0.7450980392156863" d="M 401.5 326 L 402 332.5 L 401 332.5 L 401.5 326 Z " /><path fill="rgb(0,0,0)" stroke="rgb(0,0,0)" stroke-width="1" opacity="0.7450980392156863" d="M 78.5 328 L 79 334.5 L 78 334.5 L 78.5 328 Z " /><path fill="rgb(0,0,0)" stroke="rgb(0,0,0)" stroke-width="1" opacity="0.7450980392156863" d="M 433.5 328 L 434 334.5 L 433 334.5 L 433.5 328 Z " /><path fill="rgb(0,0,0)" stroke="rgb(0,0,0)" stroke-width="1" opacity="0.7450980392156863" d="M 109.5 340 L 110 346.5 L 109 346.5 L 109.5 340 Z " /><path fill="rgb(0,0,0)" stroke="rgb(0,0,0)" stroke-width="1" opacity="0.7450980392156863" d="M 402.5 340 L 403 346.5 L 402 346.5 L 402.5 340 Z " /><path fill="rgb(0,0,0)" stroke="rgb(0,0,0)" stroke-width="1" opacity="0.7450980392156863" d="M 77.5 342 L 78 348.5 L 77 348.5 L 77.5 342 Z " /><path fill="rgb(0,0,0)" stroke="rgb(0,0,0)" stroke-width="1" opacity="0.7450980392156863" d="M 434.5 342 L 435 348.5 L 434 348.5 L 434.5 342 Z " /><path fill="rgb(0,0,0)" stroke="rgb(0,0,0)" stroke-width="1" opacity="0.7450980392156863" d="M 108.5 354 L 109 360.5 L 108 360.5 L 108.5 354 Z " /><path fill="rgb(0,0,0)" stroke="rgb(0,0,0)" stroke-width="1" opacity="0.7450980392156863" d="M 403.5 354 L 404 360.5 L 403 360.5 L 403.5 354 Z " /><path fill="rgb(0,0,0)" stroke="rgb(0,0,0)" stroke-width="1" opacity="0.7450980392156863" d="M 76.5 356 L 77 362.5 L 76 362.5 L 76.5 356 Z " /><path fill="rgb(0,0,0)" stroke="rgb(0,0,0)" stroke-width="1" opacity="0.7450980392156863" d="M 435.5 356 L 436 362.5 L 435 362.5 L 435.5 356 Z " /><path fill="rgb(0,0,0)" stroke="rgb(0,0,0)" stroke-width="1" opacity="0.7450980392156863" d="M 107.5 368 L 108 374.5 L 107 374.5 L 107.5 368 Z " /><path fill="rgb(0,0,0)" stroke="rgb(0,0,0)" stroke-width="1" opacity="0.7450980392156863" d="M 404.5 368 L 405 374.5 L 404 374.5 L 404.5 368 Z " /><path fill="rgb(0,0,0)" stroke="rgb(0,0,0)" stroke-width="1" opacity="0.7450980392156863" d="M 75.5 370 L 76 376.5 L 75 376.5 L 75.5 370 Z " /><path fill="rgb(0,0,0)" stroke="rgb(0,0,0)" stroke-width="1" opacity="0.7450980392156863" d="M 436.5 370 L 437 376.5 L 436 376.5 L 436.5 370 Z " /><path fill="rgb(0,0,0)" stroke="rgb(0,0,0)" stroke-width="1" opacity="0.7450980392156863" d="M 106.5 382 L 107 388.5 L 106 388.5 L 106.5 382 Z " /><path fill="rgb(0,0,0)" stroke="rgb(0,0,0)" stroke-width="1" opacity="0.7450980392156863" d="M 405.5 382 L 406 388.5 L 405 388.5 L 405.5 382 Z " /><path fill="rgb(0,0,0)" stroke="rgb(0,0,0)" stroke-width="1" opacity="0.7450980392156863" d="M 74.5 384 L 75 390.5 L 74 390.5 L 74.5 384 Z " /><path fill="rgb(0,0,0)" stroke="rgb(0,0,0)" stroke-width="1" opacity="0.7450980392156863" d="M 437.5 384 L 438 390.5 L 437 390.5 L 437.5 384 Z " /><path fill="rgb(0,0,0)" stroke="rgb(0,0,0)" stroke-width="1" opacity="0.7450980392156863" d="M 105.5 396 L 106 402.5 L 105 402.5 L 105.5 396 Z " /><path fill="rgb(0,0,0)" stroke="rgb(0,0,0)" stroke-width="1" opacity="0.7450980392156863" d="M 406.5 396 L 407 402.5 L 406 402.5 L 406.5 396 Z " /><path fill="rgb(0,0,0)" stroke="rgb(0,0,0)" stroke-width="1" opacity="0.7450980392156863" d="M 73.5 398 L 74 404.5 L 73 404.5 L 73.5 398 Z " /><path fill="rgb(0,0,0)" stroke="rgb(0,0,0)" stroke-width="1" opacity="0.7450980392156863" d="M 438.5 398 L 439 404.5 L 438 404.5 L 438.5 398 Z " /><path fill="rgb(0,0,0)" stroke="rgb(0,0,0)" stroke-width="1" opacity="0.7450980392156863" d="M 104.5 410 L 105 416.5 L 104 416.5 L 104.5 410 Z " /><path fill="rgb(0,0,0)" stroke="rgb(0,0,0)" stroke-width="1" opacity="0.7450980392156863" d="M 407.5 410 L 408 416.5 L 407 416.5 L 407.5 410 Z " /><path fill="rgb(0,0,0)" stroke="rgb(0,0,0)" stroke-width="1" opacity="0.7450980392156863" d="M 72.5 412 L 73 418.5 L 72 418.5 L 72.5 412 Z " /><path fill="rgb(0,0,0)" stroke="rgb(0,0,0)" stroke-width="1" opacity="0.7450980392156863" d="M 439.5 412 L 440 418.5 L 439 418.5 L 439.5 412 Z " /><path fill="rgb(0,0,0)" stroke="rgb(0,0,0)" stroke-width="1" opacity="0.7450980392156863" d="M 103.5 424 L 104 430.5 L 103 430.5 L 103.5 424 Z " /><path fill="rgb(0,0,0)" stroke="rgb(0,0,0)" stroke-width="1" opacity="0.7450980392156863" d="M 408.5 424 L 409 430.5 L 408 430.5 L 408.5 424 Z " /><path fill="rgb(0,0,0)" stroke="rgb(0,0,0)" stroke-width="1" opacity="0.7450980392156863" d="M 71.5 426 L 72 432.5 L 71 432.5 L 71.5 426 Z " /><path fill="rgb(0,0,0)" stroke="rgb(0,0,0)" stroke-width="1" opacity="0.7450980392156863" d="M 440.5 426 L 441 432.5 L 440 432.5 L 440.5 426 Z " /><path fill="rgb(0,0,0)" stroke="rgb(0,0,0)" stroke-width="1" opacity="0.7450980392156863" d="M 71.5 441 L 72 443.5 L 71 443.5 L 71.5 441 Z " /><path fill="rgb(0,0,0)" stroke="rgb(0,0,0)" stroke-width="1" opacity="0.7450980392156863" d="M 440.5 441 L 441 443.5 L 440 443.5 L 440.5 441 Z " /><path fill="rgb(0,0,0)" stroke="rgb(0,0,0)" stroke-width="1" opacity="0.7450980392156863" d="M 74.5 452 L 76 454.5 L 74 453.5 L 74.5 452 Z " /><path fill="rgb(0,0,0)" stroke="rgb(0,0,0)" stroke-width="1" opacity="0.7450980392156863" d="M 437.5 452 L 438 453.5 L 436 454.5 L 437.5 452 Z " /><path fill="rgb(0,0,0)" stroke="rgb(0,0,0)" stroke-width="1" opacity="0.7450980392156863" d="M 77.5 458 L 78.5 460 L 77.5 458 Z " /><path fill="rgb(0,0,0)" stroke="rgb(0,0,0)" stroke-width="1" opacity="0.7450980392156863" d="M 434.5 458 L 433.5 460 L 434.5 458 Z " /><path fill="rgb(0,0,0)" stroke="rgb(0,0,0)" stroke-width="1" opacity="0.7450980392156863" d="M 85.5 466 L 86.5 468 L 85.5 466 Z " /><path fill="rgb(0,0,0)" stroke="rgb(0,0,0)" stroke-width="1" opacity="0.7450980392156863" d="M 426.5 466 L 425.5 468 L 426.5 466 Z " /><path fill="rgb(0,0,0)" stroke="rgb(0,0,0)" stroke-width="1" opacity="0.7450980392156863" d="M 104.5 474 L 408 474.5 L 104.5 475 L 104.5 474 Z " /><path fill="rgb(0,0,0)" stroke="rgb(0,0,0)" stroke-width="1" opacity="1" d="M 243.5 38 L 268.5 38 L 289.5 43 Q 314 52 330 69.5 Q 343.4 83.6 351 103.5 L 356 122.5 L 357 144 L 387.5 144 L 397.5 146 Q 408.5 150 415 158.5 L 420 167.5 L 423 181.5 L 423 194.5 L 424 195.5 L 424 208.5 L 425 209.5 L 425 222.5 L 426 223.5 L 426 236.5 L 427 237.5 L 427 250.5 L 428 251.5 L 428 264.5 L 429 265.5 L 429 278.5 L 430 279.5 L 430 292.5 L 431 293.5 L 431 306.5 L 432 307.5 L 432 320.5 L 433 321.5 L 433 334.5 L 434 335.5 L 434 348.5 L 435 349.5 L 435 362.5 L 436 363.5 L 436 376.5 L 437 377.5 L 437 390.5 L 438 391.5 L 438 404.5 L 439 405.5 L 441 440.5 Q 438.3 457.3 427.5 466 Q 420.9 471.9 410.5 474 L 101.5 474 Q 86.8 470.8 79 460.5 L 72 446.5 L 71 433.5 L 72 432.5 L 75 377.5 L 76 376.5 L 76 363.5 L 77 362.5 L 80 307.5 L 81 306.5 L 81 293.5 L 82 292.5 L 85 237.5 L 86 236.5 L 89 181.5 L 92 167.5 Q 95.8 157.8 103.5 152 L 114.5 146 L 124.5 144 L 155 144 L 156 117.5 L 161 100.5 Q 169.9 78.4 186.5 64 Q 198.5 53 214.5 46 L 228.5 41 L 243.5 38 Z M 248 69 L 232 73 L 214 83 L 196 103 L 188 122 L 187 134 L 186 135 L 186 144 L 187 144 L 326 144 L 324 122 Q 320 106 311 96 Q 300 80 281 73 L 265 69 L 248 69 Z M 125 176 L 122 177 L 120 187 L 118 228 L 117 229 L 114 284 L 113 285 L 113 298 L 112 299 L 109 354 L 108 355 L 108 368 L 107 369 L 104 424 L 103 425 L 103 440 L 104 442 L 107 443 L 406 443 L 408 442 L 409 440 L 409 425 L 408 424 L 405 369 L 404 368 L 404 355 L 403 354 L 403 341 L 402 340 L 402 327 L 401 326 L 401 313 L 400 312 L 400 299 L 399 298 L 399 285 L 398 284 L 398 271 L 397 270 L 397 257 L 396 256 L 396 243 L 395 242 L 395 229 L 394 228 L 394 215 L 393 214 L 393 201 L 392 200 L 392 187 L 390 177 L 388 176 L 357 176 L 357 260 L 354 266 Q 350 271 343 272 Q 336 272 333 269 L 326 261 L 326 176 L 186 176 L 186 261 L 184 265 Q 181 271 173 272 Q 166 272 162 269 L 155 260 L 155 239 L 156 238 L 156 176 L 125 176 Z " /></svg>